<svg id="Layer_1" data-name="Layer 1" xmlns="http://www.w3.org/2000/svg" viewBox="0 0 300 300"><defs><style>.cls-1{fill:#21234a;}.cls-2{fill:#e16121;}</style></defs><title>favicon</title><rect class="cls-1" width="300" height="300" rx="74.63"/><path class="cls-2" d="M71.24,226a4.38,4.38,0,0,1,1.42-1.42h-.13l22.92-14.38V100.61a4.53,4.53,0,0,1,.3-1.63l30.68-78.31a4.37,4.37,0,0,1,6.31-2.15l53.12,31.25,14.81,10.17a4.38,4.38,0,0,1,1.88,5.21l-23.88,68.28V204.2l48.6,28a4.39,4.39,0,0,1,1.53,6,4.31,4.31,0,0,1-1.53,1.53l-68.54,41.81a4.39,4.39,0,0,1-4.38,0L72.66,232A4.38,4.38,0,0,1,71.24,226ZM132.87,28.6l-28.7,72.75v122l48,30.06V133.52a4.4,4.4,0,0,1,.21-1.4l25.95-76.61Zm60.3,36.82-7.27-5-25,73.84V253.81l9-5.17V132.51a4.54,4.54,0,0,1,.27-1.45ZM156.54,272.75l60-36.69-37.82-21.91V251a4.41,4.41,0,0,1-2.41,4.21l-17.53,9.94-.66.27h-1.49a5,5,0,0,1-1.09,0h-.4l-.7-.31-57-35.58a4.38,4.38,0,0,1-2.06-3.73V220.6l-12.23,7.66Z"/><path class="cls-2" d="M110.08,99.55l20.65-56.48a4.38,4.38,0,0,1,5.66-2.52l.43.19L168,58.49A4.39,4.39,0,0,1,170,63.84l-21.39,57a4,4,0,0,1-6.18,2.54l-30.45-18.54A4.38,4.38,0,0,1,110.08,99.55Zm32.57,13.63,18.18-48.64L137.34,51.09l-17.53,48.2Z"/><path class="cls-2" d="M110,117.09a4.41,4.41,0,0,1,4.93-1.28h0l27.6,17a4.38,4.38,0,0,1-4.38,7.45l-27.61-17A4.39,4.39,0,0,1,110,117.09Z"/></svg>